<svg version="1.1" xmlns="http://www.w3.org/2000/svg" viewBox="0 0 394.8683737008859 394" width="1184.6051211026577" height="1182">
  <!-- svg-source:excalidraw -->
  
  <defs>
    <style class="style-fonts">
      @font-face {
        font-family: "Virgil";
        src: url("https://excalidraw.com/Virgil.woff2");
      }
      @font-face {
        font-family: "Cascadia";
        src: url("https://excalidraw.com/Cascadia.woff2");
      }
    </style>
    
  </defs>
  <g stroke-linecap="round" transform="translate(11.868373700885911 10) rotate(0 186.5 187)"><path d="M235.56 6.06 C252.66 7.72, 270.58 19.01, 285.64 28.25 C300.7 37.5, 314.48 48.51, 325.91 61.51 C337.34 74.5, 346.65 90.24, 354.23 106.22 C361.81 122.19, 368.6 140.04, 371.39 157.36 C374.18 174.67, 373.34 192.75, 370.97 210.09 C368.6 227.43, 364.26 245.12, 357.17 261.4 C350.08 277.68, 339.78 294.2, 328.44 307.76 C317.11 321.33, 303.72 333.28, 289.15 342.79 C274.58 352.31, 257.78 359.55, 241.02 364.86 C224.27 370.16, 206.01 374.34, 188.61 374.61 C171.22 374.87, 153.52 371.23, 136.65 366.45 C119.78 361.67, 102.18 355.18, 87.4 345.93 C72.63 336.69, 59.6 324.12, 48 310.97 C36.41 297.83, 25.51 282.83, 17.82 267.06 C10.14 251.29, 4.47 233.75, 1.9 216.35 C-0.66 198.95, 0.03 179.97, 2.43 162.65 C4.83 145.33, 9.57 128.25, 16.33 112.44 C23.08 96.63, 31.7 81.3, 42.95 67.8 C54.2 54.29, 69.23 41.45, 83.84 31.41 C98.45 21.37, 114.11 12.92, 130.62 7.55 C147.14 2.19, 163.75 -1.2, 182.94 -0.79 C202.12 -0.37, 234.01 7.29, 245.74 10.05 C257.47 12.81, 254.24 12.88, 253.3 15.77 M259.47 13.97 C276.12 17.98, 292.46 31.66, 306.16 42.98 C319.87 54.3, 332.18 67.38, 341.69 81.9 C351.2 96.43, 357.81 113.32, 363.24 130.13 C368.67 146.95, 373.87 165.05, 374.28 182.76 C374.69 200.47, 370.6 219.18, 365.7 236.38 C360.79 253.58, 354.06 271.24, 344.84 285.98 C335.63 300.73, 323.5 313.11, 310.42 324.84 C297.33 336.56, 281.83 348.34, 266.33 356.33 C250.83 364.32, 234.28 369.97, 217.43 372.77 C200.58 375.58, 182.71 375.32, 165.2 373.14 C147.7 370.96, 128.66 366.62, 112.4 359.68 C96.14 352.73, 81.03 342.6, 67.64 331.47 C54.25 320.33, 41.68 307.46, 32.08 292.85 C22.48 278.24, 15.59 260.75, 10.04 243.8 C4.5 226.86, -0.42 208.65, -1.2 191.17 C-1.99 173.68, 0.59 155.72, 5.34 138.89 C10.09 122.07, 18.03 105.57, 27.32 90.24 C36.6 74.91, 47.83 59.06, 61.05 46.91 C74.27 34.76, 90.95 24.51, 106.61 17.33 C122.28 10.15, 138.05 6.38, 155.06 3.84 C172.06 1.3, 191.29 0.16, 208.64 2.09 C225.99 4.02, 250.85 12.76, 259.15 15.42 C267.45 18.09, 259.27 15.22, 258.46 18.06" stroke="#1e1e1e" stroke-width="1" fill="none"></path></g><g stroke-linecap="round"><g transform="translate(11.06774441600777 187.2836558110867) rotate(0 180.30479545571896 38.82243583138117)"><path d="M0.26 0.05 C30.32 9.87, 119.92 46.29, 180.15 59.39 C240.39 72.48, 331.3 75.35, 361.68 78.62 M-1.07 -0.97 C28.82 8.93, 118.7 47.5, 178.99 60.41 C239.27 73.32, 330.01 73.75, 360.64 76.48" stroke="#1e1e1e" stroke-width="1" fill="none"></path></g></g><mask></mask><g stroke-linecap="round"><g transform="translate(330.04572942713986 261.8003667863362) rotate(0 17.007347590536483 16.615355269078094)"><path d="M0.94 -0.26 C3.59 5.48, 10.48 32.93, 16 33.65 C21.52 34.37, 31.11 9.08, 34.04 4.06 M-0.02 -1.44 C2.54 4.48, 10.04 34.04, 15.56 34.66 C21.08 35.28, 30.12 7.85, 33.1 2.29" stroke="#1e1e1e" stroke-width="1" fill="none"></path></g></g><mask></mask><g stroke-linecap="round"><g transform="translate(52.902733230248884 202.1144504367046) rotate(0 51.98133566590619 31.595727538123356)"><path d="M0.85 1.02 C5.88 10.89, 12.59 54.24, 29.41 60.17 C46.22 66.09, 89.49 40.4, 101.72 36.57 M-0.16 0.5 C4.8 10.5, 11.18 55.52, 28.56 61.74 C45.94 67.96, 91.68 41.67, 104.12 37.8" stroke="#1e1e1e" stroke-width="1" fill="none"></path></g></g><mask></mask></svg>